<svg xmlns="http://www.w3.org/2000/svg" width="480" height="480" viewBox="0 0 480 480">
<g>
<path d="M 198.00 454.32 C181.77,459.02 166.93,463.10 165.00,463.39 C158.44,464.39 149.90,460.87 144.32,454.85 C142.49,452.87 129.35,433.10 108.20,400.50 C105.71,396.65 93.53,378.00 81.15,359.06 C68.77,340.12 58.06,323.02 57.36,321.06 C55.71,316.45 55.73,307.50 57.40,302.83 C58.75,299.06 61.08,295.12 85.51,255.50 C93.31,242.85 109.94,215.85 122.47,195.50 C135.00,175.15 146.93,155.80 148.98,152.50 C151.03,149.20 156.32,140.65 160.72,133.50 C165.12,126.35 175.37,109.70 183.50,96.50 C191.63,83.30 203.06,64.72 208.89,55.22 C227.76,24.49 228.92,22.91 234.89,19.79 C244.76,14.63 258.66,16.61 265.72,24.18 C268.17,26.81 280.38,52.03 306.53,108.50 C308.32,112.35 320.45,138.23 333.50,166.00 C346.54,193.77 363.74,230.45 371.72,247.50 C379.70,264.55 393.43,293.80 402.23,312.50 C422.16,354.83 424.65,360.03 424.95,365.36 C425.00,366.12 424.99,366.89 424.99,367.76 C424.99,367.89 424.99,368.03 424.99,368.16 C424.97,379.44 418.08,389.60 407.90,393.33 C405.48,394.22 386.17,399.94 365.00,406.04 C343.83,412.15 319.52,419.17 311.00,421.66 C302.48,424.14 280.20,430.59 261.50,435.98 C242.80,441.37 214.23,449.63 198.00,454.32 ZM 182.89 428.49 C184.32,429.27 186.18,429.72 187.00,429.49 C194.68,427.40 205.56,424.30 222.00,419.53 C262.64,407.72 272.83,404.76 284.00,401.49 C294.45,398.44 325.43,389.48 372.00,376.06 C381.62,373.28 390.62,370.18 392.00,369.16 C393.38,368.14 394.90,365.74 395.39,363.82 C395.49,363.41 395.63,363.14 395.74,362.85 C396.58,360.58 395.08,357.43 353.52,270.57 C349.91,263.03 346.00,254.86 341.76,246.00 C332.95,227.57 323.81,208.45 321.46,203.50 C319.11,198.55 308.56,176.50 298.03,154.50 C287.50,132.50 274.55,105.39 269.27,94.26 C263.04,81.15 259.01,73.82 257.83,73.44 C255.36,72.66 252.32,73.73 251.59,75.62 C250.97,77.25 246.75,96.62 240.09,128.50 C237.91,138.95 233.87,158.07 231.12,171.00 C228.37,183.93 223.59,206.43 220.51,221.00 C217.43,235.57 213.38,254.70 211.50,263.50 C209.63,272.30 205.81,290.30 203.02,303.50 C195.26,340.13 187.38,377.25 182.42,400.46 C177.50,423.45 177.54,425.60 182.89,428.49 Z" fill="rgb(12,52,74)"/>
<path d="M 0.00 240.00 L 0.00 0.00 L 240.00 0.00 L 480.00 0.00 L 480.00 240.00 L 480.00 480.00 L 240.00 480.00 L 0.00 480.00 L 0.00 240.00 ZM 198.00 454.32 C214.23,449.63 242.80,441.37 261.50,435.98 C280.20,430.59 302.48,424.14 311.00,421.66 C319.52,419.17 343.83,412.15 365.00,406.04 C386.17,399.94 405.48,394.22 407.90,393.33 C418.08,389.60 424.97,379.44 424.99,368.16 C425.00,360.74 425.43,361.80 402.23,312.50 C393.43,293.80 379.70,264.55 371.72,247.50 C363.74,230.45 346.54,193.77 333.50,166.00 C320.45,138.23 308.32,112.35 306.53,108.50 C280.38,52.03 268.17,26.81 265.72,24.18 C258.66,16.61 244.76,14.63 234.89,19.79 C228.92,22.91 227.76,24.49 208.89,55.22 C203.06,64.72 191.63,83.30 183.50,96.50 C175.37,109.70 165.12,126.35 160.72,133.50 C156.32,140.65 151.03,149.20 148.98,152.50 C146.93,155.80 135.00,175.15 122.47,195.50 C109.94,215.85 93.31,242.85 85.51,255.50 C61.08,295.12 58.75,299.06 57.40,302.83 C55.73,307.50 55.71,316.45 57.36,321.06 C58.06,323.02 68.77,340.12 81.15,359.06 C93.53,378.00 105.71,396.65 108.20,400.50 C129.35,433.10 142.49,452.87 144.32,454.85 C149.90,460.87 158.44,464.39 165.00,463.39 C166.93,463.10 181.77,459.02 198.00,454.32 ZM 182.89 428.49 C177.54,425.60 177.50,423.45 182.42,400.46 C187.38,377.25 195.26,340.13 203.02,303.50 C205.81,290.30 209.63,272.30 211.50,263.50 C213.38,254.70 217.43,235.57 220.51,221.00 C223.59,206.43 228.37,183.93 231.12,171.00 C233.87,158.07 237.91,138.95 240.09,128.50 C246.75,96.62 250.97,77.25 251.59,75.62 C252.32,73.73 255.36,72.66 257.83,73.44 C259.01,73.82 263.04,81.15 269.27,94.26 C274.55,105.39 287.50,132.50 298.03,154.50 C308.56,176.50 319.11,198.55 321.46,203.50 C323.81,208.45 332.95,227.57 341.76,246.00 C400.87,369.57 396.41,359.78 395.39,363.82 C394.90,365.74 393.38,368.14 392.00,369.16 C390.62,370.18 381.62,373.28 372.00,376.06 C325.43,389.48 294.45,398.44 284.00,401.49 C272.83,404.76 262.64,407.72 222.00,419.53 C205.56,424.30 194.68,427.40 187.00,429.49 C186.18,429.72 184.32,429.27 182.89,428.49 Z" fill="rgb(254,254,254)"/>
</g>
</svg>